<svg xmlns="http://www.w3.org/2000/svg" xmlns:xlink="http://www.w3.org/1999/xlink" xml:space="preserve" version="1.1" viewBox="0 0 847 847"><g><path d="M53.35 719.27c93,38.63 291.69,78.27 457.84,-6.08 135.89,-68.98 160.56,-200.89 157.89,-297.67 32.02,-16.83 53.86,-50.41 53.86,-89.09 0,-34.07 -16.94,-64.18 -42.85,-82.38 9.74,-43.93 38.32,-109.41 122.09,-127.8 3.7,4.64 9.41,7.63 15.82,7.63 11.16,0 20.2,-9.05 20.2,-20.2 0,-11.17 -9.04,-20.21 -20.2,-20.21 -6.59,0 -12.44,3.15 -16.13,8.04 -96.26,18.75 -131.19,90.09 -143.86,140.84 -11.08,-4.21 -23.11,-6.52 -35.67,-6.52 -15.1,0 -29.41,3.33 -42.26,9.29 -12.08,-50.89 -46.5,-124.52 -144.53,-143.61 -3.69,-4.89 -9.54,-8.04 -16.13,-8.04 -11.16,0 -20.2,9.04 -20.2,20.21 0,11.15 9.04,20.2 20.2,20.2 6.4,0 12.11,-2.99 15.81,-7.63 86.86,19.06 114.39,88.76 123.1,132.57 -22.34,18.45 -36.59,46.37 -36.59,77.61 0,206.04 -263.54,307.54 -437.2,334.2 -45.4,6.98 -127.66,18.57 -31.19,58.64zm430.99 -219.67c11.92,-14.09 33.39,4.07 21.46,18.17 -28.17,33.3 -63.07,62.18 -101.77,86.92 -43.17,27.61 -91.03,50.03 -139.45,67.66 -17.37,6.3 -26.94,-20.12 -9.57,-26.41 46.68,-17 92.67,-38.52 133.94,-64.91 36.33,-23.23 69.05,-50.29 95.39,-81.43zm-304.93 169.97c17.89,-4.71 25.04,22.48 7.16,27.19 -21.3,5.62 -42.88,10.51 -64.53,14.59 -7.63,1.42 -14.97,-3.6 -16.4,-11.23 -1.43,-7.63 3.6,-14.97 11.23,-16.4 21.02,-3.96 41.86,-8.69 62.54,-14.15z"/></g></svg>